HIERARCHY
ROOT Hips
{
	OFFSET 0.000000 71.427986 0.000000
	CHANNELS 6 Xposition Yposition Zposition Xrotation Yrotation Zrotation
	JOINT Pelvis
	{
		OFFSET 0.000000 0.000000 0.000000
		CHANNELS 3 Xrotation Yrotation Zrotation
		JOINT LeftUpLeg
		{
			OFFSET 6.797100 -2.508499 -1.318700
			CHANNELS 3 Xrotation Yrotation Zrotation
			JOINT LeftLeg
			{
				OFFSET 0.069008 -29.241863 0.690200
				CHANNELS 3 Xrotation Yrotation Zrotation
				JOINT LeftFoot
				{
					OFFSET -0.069008 -29.568123 -0.266800
					CHANNELS 3 Xrotation Yrotation Zrotation
					JOINT LeftToeBase
					{
						OFFSET 3.145500 -8.631000 16.059900
						CHANNELS 3 Xrotation Yrotation Zrotation
						End Site
						{
							OFFSET 0.000000 18.501587 0.000000
						}
					}
				}
			}
			JOINT Left_ShortSleeve
			{
				OFFSET 0.265923 -10.480953 1.153800
				CHANNELS 3 Xrotation Yrotation Zrotation
				End Site
				{
					OFFSET 1.725763 19.823879 0.000000
				}
			}
		}
		JOINT RightUpLeg
		{
			OFFSET -6.797100 -2.508499 -1.318700
			CHANNELS 3 Xrotation Yrotation Zrotation
			JOINT RightLeg
			{
				OFFSET -0.082453 -29.241932 0.688000
				CHANNELS 3 Xrotation Yrotation Zrotation
				JOINT RightFoot
				{
					OFFSET 0.082453 -29.568058 -0.264600
					CHANNELS 3 Xrotation Yrotation Zrotation
					JOINT RightToeBase
					{
						OFFSET -3.115300 -8.682800 16.113400
						CHANNELS 3 Xrotation Yrotation Zrotation
						End Site
						{
							OFFSET 0.000000 18.567114 0.000000
						}
					}
				}
			}
			JOINT Right_ShortSleeve
			{
				OFFSET -0.265923 -10.480953 1.153800
				CHANNELS 3 Xrotation Yrotation Zrotation
				End Site
				{
					OFFSET -1.725766 19.823910 0.000000
				}
			}
		}
	}
	JOINT Spine
	{
		OFFSET 0.000000 13.368103 0.470500
		CHANNELS 3 Xrotation Yrotation Zrotation
		JOINT Spine1
		{
			OFFSET 0.147000 13.837402 0.538800
			CHANNELS 3 Xrotation Yrotation Zrotation
			JOINT Spine2
			{
				OFFSET 0.168000 16.242897 -1.435500
				CHANNELS 3 Xrotation Yrotation Zrotation
				JOINT Neck
				{
					OFFSET 0.217200 18.631500 -1.679100
					CHANNELS 3 Xrotation Yrotation Zrotation
					JOINT Head
					{
						OFFSET 0.000000 6.599396 1.385900
						CHANNELS 3 Xrotation Yrotation Zrotation
						JOINT Hat
						{
							OFFSET -0.532200 27.220596 -10.096100
							CHANNELS 3 Xrotation Yrotation Zrotation
							End Site
							{
								OFFSET 0.000000 22.029861 0.000000
							}
						}
						JOINT HairD
						{
							OFFSET -10.777400 17.437393 -1.325900
							CHANNELS 3 Xrotation Yrotation Zrotation
							JOINT HairD1
							{
								OFFSET -3.290299 -11.051193 1.062200
								CHANNELS 3 Xrotation Yrotation Zrotation
								End Site
								{
									OFFSET 0.000000 11.579437 0.000000
								}
							}
						}
						JOINT HairB
						{
							OFFSET -10.777400 17.437393 1.467900
							CHANNELS 3 Xrotation Yrotation Zrotation
							JOINT HairB1
							{
								OFFSET -1.561200 -12.956299 3.590200
								CHANNELS 3 Xrotation Yrotation Zrotation
								End Site
								{
									OFFSET 0.000000 13.534866 0.000000
								}
							}
						}
						JOINT HairA
						{
							OFFSET 9.713100 17.437393 1.467900
							CHANNELS 3 Xrotation Yrotation Zrotation
							JOINT HairA1
							{
								OFFSET 1.561200 -12.956299 3.590200
								CHANNELS 3 Xrotation Yrotation Zrotation
								End Site
								{
									OFFSET 0.000000 13.534866 0.000000
								}
							}
						}
						JOINT HairC
						{
							OFFSET 9.713100 17.437393 -1.325900
							CHANNELS 3 Xrotation Yrotation Zrotation
							JOINT HairC1
							{
								OFFSET 3.290300 -11.051193 1.062200
								CHANNELS 3 Xrotation Yrotation Zrotation
								End Site
								{
									OFFSET 0.000000 11.579437 0.000000
								}
							}
						}
					}
				}
				JOINT LeftShoulder
				{
					OFFSET 5.101800 15.108002 -2.763700
					CHANNELS 3 Xrotation Yrotation Zrotation
					JOINT LeftArm
					{
						OFFSET 9.825497 2.506317 -1.597400
						CHANNELS 3 Xrotation Yrotation Zrotation
						JOINT LeftForeArm
						{
							OFFSET 21.966244 0.000000 0.000000
							CHANNELS 3 Xrotation Yrotation Zrotation
							JOINT LeftHand
							{
								OFFSET 33.879036 0.000000 0.000000
								CHANNELS 3 Xrotation Yrotation Zrotation
								JOINT LeftHandThumb1
								{
									OFFSET 6.715286 -2.359680 3.363841
									CHANNELS 3 Xrotation Yrotation Zrotation
									JOINT LeftHandThumb2
									{
										OFFSET 2.507072 -1.447464 1.447461
										CHANNELS 3 Xrotation Yrotation Zrotation
										JOINT LeftHandThumb3
										{
											OFFSET 2.898338 -1.673355 1.673357
											CHANNELS 3 Xrotation Yrotation Zrotation
											End Site
											{
												OFFSET -0.295959 3.727692 -0.131651
											}
										}
									}
								}
								JOINT LeftHandIndex1
								{
									OFFSET 14.190811 -0.254547 3.840278
									CHANNELS 3 Xrotation Yrotation Zrotation
									JOINT LeftHandIndex2
									{
										OFFSET 3.551727 0.000000 -0.000000
										CHANNELS 3 Xrotation Yrotation Zrotation
										JOINT LeftHandIndex3
										{
											OFFSET 2.894196 0.000000 0.000000
											CHANNELS 3 Xrotation Yrotation Zrotation
											End Site
											{
												OFFSET -1.000603 2.690872 0.366626
											}
										}
									}
								}
								JOINT LeftHandMiddle1
								{
									OFFSET 13.776489 0.000000 0.000000
									CHANNELS 3 Xrotation Yrotation Zrotation
									JOINT LeftHandMiddle2
									{
										OFFSET 3.438232 0.000000 0.000000
										CHANNELS 3 Xrotation Yrotation Zrotation
										JOINT LeftHandMiddle3
										{
											OFFSET 3.691551 0.000000 0.000000
											CHANNELS 3 Xrotation Yrotation Zrotation
											End Site
											{
												OFFSET -1.082298 3.499527 0.457670
											}
										}
									}
								}
								JOINT LeftHandRing1
								{
									OFFSET 13.966164 -0.268127 -3.067488
									CHANNELS 3 Xrotation Yrotation Zrotation
									JOINT LeftHandRing2
									{
										OFFSET 3.162567 0.000000 0.000000
										CHANNELS 3 Xrotation Yrotation Zrotation
										JOINT LeftHandRing3
										{
											OFFSET 3.324348 0.000000 0.000000
											CHANNELS 3 Xrotation Yrotation Zrotation
											End Site
											{
												OFFSET -0.861900 3.184998 0.405154
											}
										}
									}
								}
								JOINT LeftHandPinky1
								{
									OFFSET 13.131393 -0.168503 -5.746925
									CHANNELS 3 Xrotation Yrotation Zrotation
									JOINT LeftHandPinky2
									{
										OFFSET 2.849182 0.000000 0.000000
										CHANNELS 3 Xrotation Yrotation Zrotation
										JOINT LeftHandPinky3
										{
											OFFSET 2.805038 0.000000 0.000000
											CHANNELS 3 Xrotation Yrotation Zrotation
											End Site
											{
												OFFSET -0.882500 2.642609 0.325652
											}
										}
									}
								}
							}
							JOINT Left_Sleeve
							{
								OFFSET 6.592125 -0.646545 0.805568
								CHANNELS 3 Xrotation Yrotation Zrotation
								End Site
								{
									OFFSET -0.000179 20.275787 -0.000000
								}
							}
						}
					}
				}
				JOINT RightShoulder
				{
					OFFSET -5.731700 15.108002 -2.763700
					CHANNELS 3 Xrotation Yrotation Zrotation
					JOINT RightArm
					{
						OFFSET -9.825497 2.506317 -1.597400
						CHANNELS 3 Xrotation Yrotation Zrotation
						JOINT RightForeArm
						{
							OFFSET -21.966242 0.000000 0.000000
							CHANNELS 3 Xrotation Yrotation Zrotation
							JOINT RightHand
							{
								OFFSET -33.879032 0.000000 0.000000
								CHANNELS 3 Xrotation Yrotation Zrotation
								JOINT RightHandThumb1
								{
									OFFSET -6.715286 -2.359680 3.363841
									CHANNELS 3 Xrotation Yrotation Zrotation
									JOINT RightHandThumb2
									{
										OFFSET -2.507072 -1.447464 1.447461
										CHANNELS 3 Xrotation Yrotation Zrotation
										JOINT RightHandThumb3
										{
											OFFSET -2.898338 -1.673355 1.673357
											CHANNELS 3 Xrotation Yrotation Zrotation
											End Site
											{
												OFFSET 0.295959 3.727692 -0.131651
											}
										}
									}
								}
								JOINT RightHandIndex1
								{
									OFFSET -14.190811 -0.254547 3.840278
									CHANNELS 3 Xrotation Yrotation Zrotation
									JOINT RightHandIndex2
									{
										OFFSET -3.551727 0.000000 -0.000000
										CHANNELS 3 Xrotation Yrotation Zrotation
										JOINT RightHandIndex3
										{
											OFFSET -2.894196 0.000000 0.000000
											CHANNELS 3 Xrotation Yrotation Zrotation
											End Site
											{
												OFFSET 1.000603 2.690872 0.366626
											}
										}
									}
								}
								JOINT RightHandMiddle1
								{
									OFFSET -13.776489 0.000000 0.000000
									CHANNELS 3 Xrotation Yrotation Zrotation
									JOINT RightHandMiddle2
									{
										OFFSET -3.438232 0.000000 0.000000
										CHANNELS 3 Xrotation Yrotation Zrotation
										JOINT RightHandMiddle3
										{
											OFFSET -3.691551 0.000000 0.000000
											CHANNELS 3 Xrotation Yrotation Zrotation
											End Site
											{
												OFFSET 1.082298 3.499527 0.457670
											}
										}
									}
								}
								JOINT RightHandRing1
								{
									OFFSET -13.966164 -0.268127 -3.067488
									CHANNELS 3 Xrotation Yrotation Zrotation
									JOINT RightHandRing2
									{
										OFFSET -3.162567 0.000000 0.000000
										CHANNELS 3 Xrotation Yrotation Zrotation
										JOINT RightHandRing3
										{
											OFFSET -3.324348 0.000000 0.000000
											CHANNELS 3 Xrotation Yrotation Zrotation
											End Site
											{
												OFFSET 0.861900 3.184998 0.405154
											}
										}
									}
								}
								JOINT RightHandPinky1
								{
									OFFSET -13.131393 -0.168503 -5.746925
									CHANNELS 3 Xrotation Yrotation Zrotation
									JOINT RightHandPinky2
									{
										OFFSET -2.849182 0.000000 0.000000
										CHANNELS 3 Xrotation Yrotation Zrotation
										JOINT RightHandPinky3
										{
											OFFSET -2.805038 0.000000 0.000000
											CHANNELS 3 Xrotation Yrotation Zrotation
											End Site
											{
												OFFSET 0.882500 2.642609 0.325652
											}
										}
									}
								}
							}
							JOINT Right_Sleeve
							{
								OFFSET -6.592125 -0.646545 0.805568
								CHANNELS 3 Xrotation Yrotation Zrotation
								End Site
								{
									OFFSET 0.000179 20.275787 -0.000000
								}
							}
						}
					}
				}
				JOINT Bind_Right_JacketString
				{
					OFFSET -3.534800 11.969597 7.200700
					CHANNELS 3 Xrotation Yrotation Zrotation
					JOINT Bind_Right_JacketString1
					{
						OFFSET -0.319900 -6.102600 2.794100
						CHANNELS 3 Xrotation Yrotation Zrotation
						End Site
						{
							OFFSET 0.000000 6.719452 0.000000
						}
					}
				}
				JOINT Bind_Left_JacketString
				{
					OFFSET 2.904800 11.969597 7.200700
					CHANNELS 3 Xrotation Yrotation Zrotation
					JOINT Bind_Left_JacketString1
					{
						OFFSET 0.364800 -5.904503 3.186800
						CHANNELS 3 Xrotation Yrotation Zrotation
						End Site
						{
							OFFSET 0.000000 6.719513 0.000000
						}
					}
				}
				JOINT HairE
				{
					OFFSET 5.915200 17.612701 -11.592200
					CHANNELS 3 Xrotation Yrotation Zrotation
					JOINT HairE1
					{
						OFFSET 0.289200 -7.171898 -1.284500
						CHANNELS 3 Xrotation Yrotation Zrotation
						End Site
						{
							OFFSET 0.000000 7.291756 0.000000
						}
					}
				}
				JOINT HairF
				{
					OFFSET -0.864800 17.612701 -11.592200
					CHANNELS 3 Xrotation Yrotation Zrotation
					JOINT HairF1
					{
						OFFSET 0.000000 -14.087097 -2.127501
						CHANNELS 3 Xrotation Yrotation Zrotation
						End Site
						{
							OFFSET 0.000000 14.246841 0.000000
						}
					}
				}
				JOINT HairG
				{
					OFFSET -8.087700 17.612701 -11.592200
					CHANNELS 3 Xrotation Yrotation Zrotation
					JOINT HairG1
					{
						OFFSET -0.293600 -6.081398 -0.910100
						CHANNELS 3 Xrotation Yrotation Zrotation
						End Site
						{
							OFFSET 0.000000 6.156120 0.000000
						}
					}
				}
			}
		}
	}
	JOINT Pouch
	{
		OFFSET 0.000000 4.394501 10.847300
		CHANNELS 3 Xrotation Yrotation Zrotation
		End Site
		{
			OFFSET 0.000000 21.880577 0.000000
		}
	}
	JOINT Bag
	{
		OFFSET -13.229000 4.813004 -0.593300
		CHANNELS 3 Xrotation Yrotation Zrotation
		End Site
		{
			OFFSET 0.000000 21.880577 0.000000
		}
	}
	JOINT OccupyGuyFacialAnim_Joint
	{
		OFFSET 1.000000 -70.206398 -1.655000
		CHANNELS 3 Xrotation Yrotation Zrotation
		End Site
		{
			OFFSET 0.000000 21.880577 0.000000
		}
	}
}
MOTION
Frames: 4
Frame Time: 0.033333
-0.984436 67.886284 0.307772 -170.678395 173.833683 -182.292818 0.000001 -0.000000 0.000000 -2.424433 7.889873 -0.357049 33.308930 0.536916 2.266205 -24.948786 2.208900 -2.094725 -0.000000 0.000000 0.000000 0.000000 -0.000000 -0.000000 -44.635915 -6.665556 -2.130670 55.739968 -8.475967 -0.189217 -5.242492 -19.197078 -1.818017 0.000001 0.000000 0.000000 -0.000001 0.000000 -0.000000 8.086196 -5.494674 2.082839 0.336780 -1.561505 0.892741 0.320592 -1.578371 0.899719 -6.005702 -1.326279 -2.551122 -3.040316 -6.928993 -0.006937 -0.000000 -0.000000 -0.000000 -0.000000 -0.000000 -0.000000 -0.000000 -0.000000 0.000000 -0.000000 -0.000000 0.000000 -0.000001 -0.000001 -0.000000 -0.000000 -0.000000 0.000000 -0.000001 -0.000001 -0.000000 -0.000000 -0.000000 -0.000000 -0.000000 -0.000000 -0.000000 0.593423 -1.577682 -9.558256 1.000221 -33.300673 -49.066508 0.000050 -84.148832 0.000036 -2.049997 0.094732 7.137656 3.168104 -6.585799 2.451917 8.790539 29.196846 5.298835 0.000004 0.000001 0.000002 0.715372 -0.882851 -20.783156 1.529073 3.947785 -42.332467 0.000001 -0.000001 -0.000002 -0.940776 2.640429 -33.888366 1.401160 3.802922 -40.439761 -0.000001 -0.000001 0.000001 2.610680 7.334311 -44.522820 1.107077 3.428763 -35.779495 -0.000002 0.000002 0.000001 3.322702 17.657352 -42.417401 1.203984 3.559124 -37.369338 -0.000001 -0.000001 -0.000001 0.000000 -0.000002 -0.000007 0.628876 0.885410 11.418674 18.856050 8.568905 57.725173 0.000001 20.017463 -0.000006 3.723617 -4.471085 0.551638 1.466896 10.758090 -1.023708 8.632534 -26.031733 -5.482274 -0.000000 0.000005 0.000003 0.924713 0.976201 27.663455 1.786272 -3.668568 51.912327 -0.000000 -0.000002 -0.000000 -1.122854 -2.653628 40.784108 1.739502 -3.631512 51.177521 0.000001 -0.000002 -0.000001 2.926245 -6.765245 52.950014 1.414936 -3.345002 45.846801 -0.000001 -0.000001 -0.000000 3.236180 -17.265709 48.455268 1.484920 -3.411460 47.034633 0.000003 -0.000002 0.000000 -0.000000 0.000000 -0.000000 0.000002 0.000000 -0.000000 0.000002 0.000000 -0.000000 0.000002 0.000000 -0.000000 0.000002 0.000000 -0.000000 0.000002 0.000000 -0.000000 0.000002 0.000000 -0.000000 0.000002 0.000000 -0.000000 0.000002 0.000000 -0.000000 0.000002 0.000000 -0.000000 0.000002 0.000000 -0.000000 0.000001 -0.000000 0.000000 0.000001 -0.000000 0.000000 0.000001 -0.000000 0.000000 
-0.547654 67.697830 -0.241311 -169.709232 175.293308 -182.273734 -0.000001 0.000000 -0.000000 -1.837243 7.945296 -1.555788 30.289983 0.613630 2.037626 -25.981401 3.203850 -0.969166 -0.000000 0.000000 -0.000000 0.000001 -0.000001 -0.000000 -47.589753 -6.165783 -4.505370 54.884060 -4.759792 0.307837 -1.399852 -17.688872 0.428617 -0.000001 -0.000001 0.000000 0.000004 0.000000 -0.000000 7.812226 -5.493568 2.867646 0.338721 -1.591343 1.001095 0.320496 -1.609858 1.008267 -6.316140 -1.231804 -2.660244 -2.770234 -5.787797 -0.607874 0.000001 0.000000 0.000000 0.000001 0.000000 0.000000 0.000001 0.000000 0.000000 0.000001 0.000000 0.000000 0.000000 -0.000000 -0.000000 0.000001 0.000000 0.000000 0.000000 -0.000000 -0.000000 0.000001 0.000000 0.000000 0.000001 0.000000 0.000000 0.594790 -1.609183 -9.769707 1.380839 -35.789577 -50.011181 0.000046 -79.673918 0.000041 -0.574066 -11.165778 7.613909 3.603250 -5.254160 2.944547 8.734539 28.463236 5.232232 -0.000003 0.000001 0.000001 0.557923 -1.305934 -16.218713 1.244333 3.611199 -38.014429 0.000001 0.000000 -0.000005 -0.959420 2.061491 -29.350945 1.086301 3.399796 -35.430589 0.000002 0.000001 -0.000001 2.157528 7.012747 -38.869579 0.852728 3.045530 -31.277673 -0.000002 0.000005 -0.000002 3.012475 17.245488 -37.860268 0.946464 3.194510 -32.999902 -0.000000 -0.000002 0.000001 0.000000 -0.000001 0.000001 0.632517 0.950646 11.603405 18.488969 8.908200 56.960714 -0.000006 19.107116 0.000013 -0.057660 -4.768755 1.333198 1.687603 10.103099 -1.277106 8.608997 -25.644123 -5.448745 0.000000 -0.000000 0.000003 0.844407 1.097007 25.412470 1.657133 -3.563791 49.865162 -0.000002 -0.000001 0.000004 -1.144136 -2.410875 38.548225 1.590809 -3.506901 48.789373 -0.000001 0.000000 -0.000001 2.720472 -6.681796 50.185874 1.291988 -3.221303 43.700384 -0.000001 -0.000005 -0.000003 3.080314 -17.063163 46.254905 1.363650 -3.294539 44.961421 -0.000002 0.000001 0.000001 0.000000 0.000000 0.000000 0.000000 0.000000 -0.000000 0.000000 0.000000 -0.000000 0.000000 0.000000 -0.000000 0.000000 0.000000 -0.000000 0.000000 0.000000 -0.000000 0.000000 0.000000 -0.000000 0.000000 0.000000 -0.000000 0.000000 0.000000 -0.000000 0.000000 0.000000 -0.000000 0.000000 0.000000 -0.000000 -0.000001 0.000000 -0.000000 -0.000001 0.000000 -0.000000 -0.000001 0.000000 -0.000000 
-0.229032 67.462799 -0.547493 -168.739687 176.274956 -182.295140 0.000000 -0.000000 -0.000000 -1.543029 8.027412 -2.331053 27.963573 0.563448 1.826453 -26.893204 3.856414 -0.077464 -0.000001 0.000000 0.000000 0.000001 -0.000001 0.000000 -48.474508 -5.313424 -6.564817 50.907241 -0.515585 0.409535 0.923978 -15.031609 3.092912 0.000000 0.000001 -0.000000 0.000003 0.000000 -0.000000 7.180828 -6.130304 3.632184 0.251771 -1.793659 1.111324 0.230002 -1.813318 1.116521 -5.782919 -1.068442 -2.876316 -2.716555 -4.448465 -1.029872 -0.000000 -0.000001 0.000000 -0.000000 -0.000001 0.000000 -0.000000 -0.000001 0.000000 -0.000000 -0.000001 0.000000 -0.000001 -0.000001 0.000000 -0.000000 -0.000001 0.000000 -0.000001 -0.000001 0.000000 -0.000000 -0.000001 0.000000 -0.000000 -0.000001 0.000000 0.599020 -1.596992 -10.120730 1.865593 -37.351815 -51.950368 -0.000038 -73.804101 -0.000022 0.807643 -20.211303 7.723644 4.033829 -3.914270 3.426480 8.677503 27.726788 5.165340 0.000001 -0.000000 0.000003 0.437001 -1.776516 -11.640744 0.978178 3.242695 -33.564362 0.000003 0.000003 0.000000 -0.929261 1.479262 -24.797422 0.800879 2.958616 -30.287746 0.000000 0.000001 0.000001 1.737132 6.654191 -33.170762 0.623783 2.632433 -26.657620 -0.000001 0.000000 -0.000003 2.741119 16.869275 -33.214691 0.711002 2.799243 -28.498155 -0.000001 -0.000003 -0.000001 0.000001 0.000001 0.000002 0.643464 0.777876 11.967251 17.250601 10.043999 56.433499 0.000007 16.909028 -0.000012 -4.183991 -5.245143 2.287255 1.966307 9.265887 -1.595836 8.578578 -25.156680 -5.406299 -0.000001 -0.000004 0.000001 0.747725 1.267745 22.540321 1.497654 -3.423234 47.248319 0.000001 -0.000001 0.000000 -1.156880 -2.099200 35.694931 1.408557 -3.338808 45.737488 0.000002 -0.000001 -0.000003 2.464375 -6.562404 46.658638 1.141732 -3.056581 40.956912 0.000001 -0.000000 0.000001 2.900738 -16.819892 43.451970 1.214932 -3.138798 42.311366 0.000004 0.000001 0.000001 0.000002 -0.000001 0.000000 0.000000 -0.000000 -0.000000 0.000000 -0.000000 -0.000000 0.000000 -0.000000 -0.000000 0.000000 -0.000000 -0.000000 0.000000 -0.000000 -0.000000 0.000000 -0.000000 -0.000000 0.000000 -0.000000 -0.000000 0.000000 -0.000000 -0.000000 0.000000 -0.000000 -0.000000 0.000000 -0.000000 -0.000000 0.000000 -0.000000 -0.000000 0.000000 -0.000000 -0.000000 0.000000 -0.000000 -0.000000 
-0.011211 67.085953 -0.649953 -167.991180 176.719096 -182.010048 0.000000 0.000000 -0.000000 -0.570521 7.855369 -3.166332 24.941810 0.197026 1.499616 -28.027067 4.478206 0.844510 -0.000001 0.000001 -0.000000 -0.000000 0.000000 0.000000 -48.196646 -4.207692 -8.846336 46.505040 5.451909 0.341029 2.053318 -10.866548 6.765508 0.000000 -0.000001 0.000000 0.000000 0.000000 -0.000000 6.639201 -7.183118 3.974910 0.157732 -2.091501 1.162968 0.132921 -2.111034 1.165679 -5.307068 -0.900100 -3.039429 -2.848999 -3.388263 -1.225443 -0.000000 0.000000 -0.000000 -0.000000 0.000000 -0.000000 -0.000000 0.000000 -0.000000 -0.000000 0.000000 -0.000000 0.000001 0.000000 0.000000 -0.000000 0.000000 -0.000000 0.000001 0.000000 0.000000 -0.000000 0.000000 -0.000000 -0.000000 0.000000 -0.000000 0.603124 -1.689629 -10.502523 1.454310 -38.185504 -54.978853 0.000053 -66.445617 0.000067 1.297450 -23.996640 6.930490 4.423718 -2.682549 3.857664 8.624453 27.051179 5.103952 0.000000 0.000001 -0.000003 0.364124 -2.245613 -7.444648 0.756052 2.880558 -29.407390 0.000003 -0.000002 -0.000000 -0.858565 0.947765 -20.620929 0.571509 2.525731 -25.496072 0.000002 0.000000 0.000001 1.383120 6.295833 -27.929152 0.441103 2.231969 -22.354077 0.000001 0.000003 -0.000000 2.522385 16.565309 -28.908390 0.519693 2.414182 -24.293642 -0.000001 -0.000002 0.000001 -0.000001 0.000003 -0.000003 0.656135 0.505308 12.258853 15.311838 11.187075 56.641857 -0.000001 14.703075 0.000016 -8.362528 -6.208431 3.076192 2.283078 8.300871 -1.956174 8.543145 -24.599722 -5.357480 0.000001 0.000000 0.000002 0.646544 1.486794 19.236685 1.322188 -3.252537 44.235389 -0.000001 -0.000000 -0.000002 -1.151095 -1.739407 32.412137 1.210163 -3.133555 42.224257 0.000000 -0.000000 0.000003 2.178837 -6.406888 42.601126 0.978732 -2.858239 37.798345 0.000001 0.000000 0.000001 2.718224 -16.562712 40.233653 1.052806 -2.951168 39.260173 -0.000003 0.000003 0.000001 -0.000001 -0.000001 -0.000001 -0.000000 -0.000000 -0.000000 -0.000000 0.000000 0.000000 -0.000000 -0.000000 0.000000 -0.000000 -0.000000 0.000000 -0.000000 -0.000000 -0.000000 -0.000000 0.000000 -0.000000 -0.000000 -0.000000 0.000000 -0.000000 -0.000000 0.000000 -0.000000 -0.000000 -0.000000 -0.000000 0.000000 -0.000000 0.000000 0.000000 -0.000000 0.000000 0.000000 -0.000000 0.000000 0.000000 -0.000000 
